<svg width="20" height="20" viewBox="0 0 20 20" fill="none" xmlns="http://www.w3.org/2000/svg">
<path d="M9.99917 6.14752C8.9772 6.14752 7.99709 6.5535 7.27445 7.27614C6.55181 7.99878 6.14583 8.97889 6.14583 10.0009C6.14583 11.0228 6.55181 12.0029 7.27445 12.7256C7.99709 13.4482 8.9772 13.8542 9.99917 13.8542C11.0211 13.8542 12.0012 13.4482 12.7239 12.7256C13.4465 12.0029 13.8525 11.0228 13.8525 10.0009C13.8525 8.97889 13.4465 7.99878 12.7239 7.27614C12.0012 6.5535 11.0211 6.14752 9.99917 6.14752ZM9.99917 12.5034C9.33524 12.5034 8.69851 12.2396 8.22904 11.7701C7.75958 11.3007 7.49583 10.6639 7.49583 10C7.49583 9.3361 7.75958 8.69936 8.22904 8.2299C8.69851 7.76043 9.33524 7.49669 9.99917 7.49669C10.6631 7.49669 11.2998 7.76043 11.7693 8.2299C12.2388 8.69936 12.5025 9.3361 12.5025 10C12.5025 10.6639 12.2388 11.3007 11.7693 11.7701C11.2998 12.2396 10.6631 12.5034 9.99917 12.5034Z" fill="#FFB386"/>
<path d="M14.005 6.90415C14.5011 6.90415 14.9033 6.50195 14.9033 6.00582C14.9033 5.50968 14.5011 5.10748 14.005 5.10748C13.5089 5.10748 13.1067 5.50968 13.1067 6.00582C13.1067 6.50195 13.5089 6.90415 14.005 6.90415Z" fill="#FFB386"/>
<path d="M17.1108 5.09248C16.9179 4.5943 16.6231 4.14189 16.2453 3.7642C15.8675 3.38651 15.4149 3.09188 14.9167 2.89915C14.3336 2.68028 13.7177 2.56193 13.095 2.54915C12.2925 2.51415 12.0383 2.50415 10.0033 2.50415C7.96834 2.50415 7.70751 2.50415 6.91167 2.54915C6.2895 2.56128 5.67397 2.67965 5.09167 2.89915C4.59329 3.09165 4.14064 3.38621 3.76279 3.76392C3.38493 4.14164 3.0902 4.59417 2.89751 5.09248C2.6786 5.67549 2.56052 6.29151 2.54834 6.91415C2.51251 7.71582 2.50167 7.96998 2.50167 10.0058C2.50167 12.0408 2.50167 12.3 2.54834 13.0975C2.56084 13.7208 2.67834 14.3358 2.89751 14.92C3.09074 15.4181 3.38575 15.8705 3.7637 16.2481C4.14165 16.6258 4.59423 16.9205 5.09251 17.1133C5.6737 17.341 6.28948 17.4678 6.91334 17.4883C7.71584 17.5233 7.97001 17.5341 10.005 17.5341C12.04 17.5341 12.3008 17.5341 13.0967 17.4883C13.7193 17.4757 14.3352 17.3576 14.9183 17.1392C15.4165 16.946 15.8689 16.6511 16.2466 16.2733C16.6244 15.8955 16.9193 15.4431 17.1125 14.945C17.3317 14.3617 17.4492 13.7466 17.4617 13.1233C17.4975 12.3217 17.5083 12.0675 17.5083 10.0317C17.5083 7.99582 17.5083 7.73748 17.4617 6.93998C17.452 6.30854 17.3333 5.68352 17.1108 5.09248ZM16.0958 13.0358C16.0905 13.5161 16.0028 13.9918 15.8367 14.4425C15.7115 14.7665 15.5199 15.0608 15.2742 15.3064C15.0285 15.5519 14.7341 15.7434 14.41 15.8683C13.9644 16.0337 13.4936 16.1214 13.0183 16.1275C12.2267 16.1641 12.0033 16.1733 9.97334 16.1733C7.94168 16.1733 7.73417 16.1733 6.92751 16.1275C6.45245 16.1217 5.98195 16.034 5.53667 15.8683C5.21141 15.7441 4.91584 15.5531 4.66908 15.3074C4.42232 15.0618 4.22987 14.7672 4.10417 14.4425C3.94038 13.9967 3.85277 13.5265 3.84501 13.0517C3.80917 12.26 3.80084 12.0367 3.80084 10.0067C3.80084 7.97582 3.80084 7.76832 3.84501 6.96082C3.85039 6.48084 3.93805 6.00533 4.10417 5.55498C4.35834 4.89748 4.87917 4.37998 5.53667 4.12832C5.98217 3.96343 6.45253 3.87579 6.92751 3.86915C7.72001 3.83332 7.94251 3.82332 9.97334 3.82332C12.0042 3.82332 12.2125 3.82332 13.0183 3.86915C13.4937 3.87487 13.9645 3.96254 14.41 4.12832C14.7341 4.25354 15.0285 4.44515 15.2741 4.69084C15.5198 4.93653 15.7114 5.23088 15.8367 5.55498C16.0005 6.00077 16.0881 6.47095 16.0958 6.94582C16.1317 7.73832 16.1408 7.96082 16.1408 9.99165C16.1408 12.0217 16.1408 12.24 16.105 13.0366H16.0958V13.0358Z" fill="#FFB386"/>
</svg>
