<svg width="31" height="26" viewBox="0 0 31 26" fill="none" xmlns="http://www.w3.org/2000/svg">
<path d="M28.625 0.833307H0.916626V3.74997H4.27079L9.05413 16.875C9.355 17.726 9.91173 18.4631 10.648 18.9853C11.3843 19.5074 12.264 19.7891 13.1666 19.7916H25.7083V16.875H13.1666C12.8669 16.8748 12.5745 16.7824 12.3292 16.6102C12.084 16.4379 11.8977 16.1943 11.7958 15.9125L11.125 13.9583H24.6583C25.2912 13.9574 25.9067 13.7506 26.4118 13.3691C26.9169 12.9877 27.2842 12.4523 27.4583 11.8437L30.0833 2.68539C30.1426 2.49389 30.1617 2.29222 30.1396 2.09298C30.1174 1.89374 30.0544 1.7012 29.9545 1.5274C29.8546 1.3536 29.72 1.20226 29.5589 1.08284C29.3979 0.963413 29.214 0.878468 29.0187 0.833307C28.8883 0.812075 28.7553 0.812075 28.625 0.833307ZM24.6145 11.0416H10.0312L7.37704 3.74997H26.6854L24.6145 11.0416Z" fill="#B05B3B"/>
<path d="M13.3125 25.625C14.5206 25.625 15.5 24.6456 15.5 23.4375C15.5 22.2294 14.5206 21.25 13.3125 21.25C12.1044 21.25 11.125 22.2294 11.125 23.4375C11.125 24.6456 12.1044 25.625 13.3125 25.625Z" fill="#B05B3B"/>
<path d="M22.0625 25.625C23.2706 25.625 24.25 24.6456 24.25 23.4375C24.25 22.2294 23.2706 21.25 22.0625 21.25C20.8544 21.25 19.875 22.2294 19.875 23.4375C19.875 24.6456 20.8544 25.625 22.0625 25.625Z" fill="#B05B3B"/>
</svg>
