<svg width="100" height="100" viewBox="0 0 100 100" fill="none" xmlns="http://www.w3.org/2000/svg">
<path d="M50 8.33325C27.025 8.33325 8.33337 27.0249 8.33337 49.9999C8.33337 72.9749 27.025 91.6666 50 91.6666C72.975 91.6666 91.6667 72.9749 91.6667 49.9999C91.6667 27.0249 72.975 8.33325 50 8.33325ZM50 83.3333C31.6209 83.3333 16.6667 68.3791 16.6667 49.9999C16.6667 31.6208 31.6209 16.6666 50 16.6666C68.3792 16.6666 83.3334 31.6208 83.3334 49.9999C83.3334 68.3791 68.3792 83.3333 50 83.3333Z" fill="#219653"/>
<path d="M41.6625 56.6125L32.0833 47.05L26.2 52.95L41.6708 68.3875L69.6125 40.4459L63.7208 34.5542L41.6625 56.6125Z" fill="#219653"/>
</svg>
