<svg width="30" height="30" viewBox="0 0 30 30" fill="none" xmlns="http://www.w3.org/2000/svg">
<path d="M6.25 25C6.25 25.663 6.51339 26.2989 6.98223 26.7678C7.45107 27.2366 8.08696 27.5 8.75 27.5H21.25C21.913 27.5 22.5489 27.2366 23.0178 26.7678C23.4866 26.2989 23.75 25.663 23.75 25V10H26.25V7.5H21.25V5C21.25 4.33696 20.9866 3.70107 20.5178 3.23223C20.0489 2.76339 19.413 2.5 18.75 2.5H11.25C10.587 2.5 9.95107 2.76339 9.48223 3.23223C9.01339 3.70107 8.75 4.33696 8.75 5V7.5H3.75V10H6.25V25ZM11.25 5H18.75V7.5H11.25V5ZM10 10H21.25V25H8.75V10H10Z" fill="#D79771"/>
<path d="M11.25 12.5H13.75V22.5H11.25V12.5ZM16.25 12.5H18.75V22.5H16.25V12.5Z" fill="#D79771"/>
</svg>
